<?xml version="1.0" standalone="no"?><!DOCTYPE svg PUBLIC "-//W3C//DTD SVG 1.1//EN" "http://www.w3.org/Graphics/SVG/1.1/DTD/svg11.dtd"><svg t="1734441319651" class="icon" viewBox="0 0 1024 1024" version="1.1" xmlns="http://www.w3.org/2000/svg" p-id="2709" width="16" height="16" xmlns:xlink="http://www.w3.org/1999/xlink"><path d="M691.328 519.296a15.36 15.36 0 0 1-15.36-15.36V332.16a15.36 15.36 0 0 1 15.36-15.36h63.808c17.664 1.088 34.24 9.536 45.632 23.04 10.752 12.864 15.872 29.44 14.08 45.312-3.456 29.184-29.184 52.288-59.968 53.76h-48.32v65.088a15.36 15.36 0 0 1-15.36 15.36h0.128z m15.36-111.168h47.488c14.912-0.768 28.416-12.48 30.08-26.688a29.696 29.696 0 0 0-7.04-22.016 33.728 33.728 0 0 0-23.488-12.032h-46.976v60.672h-0.128z" fill="#4E4E4E" p-id="2710"></path><path d="M797.312 519.296a15.552 15.552 0 0 1-10.432-4.096L707.2 441.344a15.36 15.36 0 0 1 20.864-22.592l79.744 73.92a15.36 15.36 0 0 1-10.496 26.624zM623.04 519.296a15.424 15.424 0 0 1-14.464-10.048l-51.52-139.584L503.04 509.44a15.36 15.36 0 0 1-28.608-11.136L543.104 320.64a15.36 15.36 0 1 1 28.736 0.256L637.376 498.56a15.36 15.36 0 0 1-14.336 20.672v0.064z" fill="#4E4E4E" p-id="2711"></path><path d="M607.488 482.368H507.776a15.36 15.36 0 0 1-15.36-15.36 15.36 15.36 0 0 1 15.36-15.36h99.712a15.36 15.36 0 0 1 15.36 15.36 15.36 15.36 0 0 1-15.36 15.36zM433.024 519.296H357.696a15.36 15.36 0 0 1-15.36-15.36V336.128a15.36 15.36 0 0 1 15.36-15.36h75.328a15.36 15.36 0 0 1 15.36 15.36 15.36 15.36 0 0 1-15.36 15.36h-59.968v137.088h59.968a15.36 15.36 0 0 1 15.36 15.36 15.36 15.36 0 0 1-15.36 15.36z" fill="#4E4E4E" p-id="2712"></path><path d="M433.024 435.392H357.696a15.36 15.36 0 0 1-15.36-15.36 15.36 15.36 0 0 1 15.36-15.36h75.328a15.36 15.36 0 0 1 15.36 15.36 15.36 15.36 0 0 1-15.36 15.36zM240.064 519.296a15.36 15.36 0 0 1-15.36-15.36V422.976l-59.264-81.92a15.296 15.296 0 0 1 3.456-21.44 15.296 15.296 0 0 1 21.44 3.456l62.208 85.952c1.92 2.56 2.88 5.76 2.88 8.96v85.952a15.36 15.36 0 0 1-15.36 15.36z" fill="#4E4E4E" p-id="2713"></path><path d="M240.128 519.296a15.36 15.36 0 0 1-15.36-15.36V417.92c0-3.2 0.96-6.4 2.88-8.96l62.208-85.952a15.424 15.424 0 0 1 21.44-3.456 15.296 15.296 0 0 1 3.456 21.376l-59.264 81.92v81.024a15.36 15.36 0 0 1-15.36 15.36z" fill="#4E4E4E" p-id="2714"></path><path d="M841.728 1009.088H166.4c-56.448 0-102.4-45.952-102.4-102.4V182.592c0-56.448 45.952-102.4 102.4-102.4h675.328c56.448 0 102.4 45.952 102.4 102.4v724.096c0 56.448-45.952 102.4-102.4 102.4zM166.4 131.328c-28.288 0-51.2 22.976-51.2 51.2v724.16c0 28.288 22.912 51.2 51.2 51.2h675.328c28.288 0 51.2-22.912 51.2-51.2V182.592c0-28.288-22.912-51.2-51.2-51.2H166.4z" fill="#4E4E4E" p-id="2715"></path><path d="M296.832 211.328a25.6 25.6 0 0 1-25.6-25.6V25.6a25.6 25.6 0 1 1 51.2 0v160.192a25.6 25.6 0 0 1-25.6 25.6zM711.232 211.328a25.6 25.6 0 0 1-25.6-25.6V25.6a25.6 25.6 0 1 1 51.2 0v160.192a25.6 25.6 0 0 1-25.6 25.6zM777.6 682.368H246.912a15.36 15.36 0 0 1-15.36-15.36 15.36 15.36 0 0 1 15.36-15.36h530.688a15.36 15.36 0 0 1 15.36 15.36 15.36 15.36 0 0 1-15.36 15.36zM777.6 809.728H246.912a15.36 15.36 0 0 1-15.36-15.36 15.36 15.36 0 0 1 15.36-15.36h530.688a15.36 15.36 0 0 1 15.36 15.36 15.36 15.36 0 0 1-15.36 15.36z" fill="#4E4E4E" p-id="2716"></path></svg>