<?xml version="1.0" standalone="no"?><!DOCTYPE svg PUBLIC "-//W3C//DTD SVG 1.1//EN" "http://www.w3.org/Graphics/SVG/1.1/DTD/svg11.dtd"><svg t="1734441122465" class="icon" viewBox="0 0 1024 1024" version="1.1" xmlns="http://www.w3.org/2000/svg" p-id="2462" width="16" height="16" xmlns:xlink="http://www.w3.org/1999/xlink"><path d="M284.16 913.92c-17.92 0-33.28-10.24-40.96-28.16-7.68-17.92-7.68-35.84 2.56-51.2l99.84-168.96-7.68-5.12c-79.36-74.24-94.72-194.56-40.96-289.28l-46.08-15.36-40.96-12.8-120.32-43.52c-12.8-5.12-17.92-17.92-15.36-30.72 2.56-7.68 7.68-12.8 15.36-15.36l412.16-143.36c2.56 0 5.12-2.56 7.68-2.56 2.56 0 5.12 0 7.68 2.56l412.16 143.36c10.24 2.56 15.36 12.8 15.36 20.48 0 10.24-5.12 17.92-15.36 20.48l-122.88 43.52v107.52c28.16 10.24 48.64 38.4 48.64 69.12 0 28.16-15.36 53.76-40.96 66.56l40.96 166.4v5.12c0 5.12-2.56 10.24-5.12 15.36-5.12 5.12-10.24 7.68-17.92 10.24H742.4c-7.68 0-12.8-2.56-17.92-10.24-2.56-5.12-5.12-10.24-5.12-15.36v-5.12l40.96-166.4c-25.6-12.8-40.96-38.4-40.96-64 0-30.72 20.48-58.88 48.64-69.12v-94.72l-81.92 28.16c15.36 33.28 25.6 69.12 25.6 104.96 2.56 125.44-97.28 227.84-222.72 230.4-30.72 0-58.88-5.12-87.04-17.92l-7.68-2.56-92.16 156.16h371.2l-43.52-71.68c-7.68-12.8-5.12-33.28 10.24-40.96 5.12-2.56 10.24-5.12 15.36-5.12 10.24 0 20.48 5.12 25.6 12.8l51.2 81.92c10.24 15.36 12.8 35.84 5.12 51.2-7.68 15.36-23.04 25.6-40.96 28.16l-412.16 5.12z m483.84-174.08h43.52l-20.48-84.48-23.04 84.48z m-412.16-158.72c28.16 46.08 79.36 74.24 133.12 74.24 20.48 0 40.96-5.12 61.44-12.8 84.48-38.4 122.88-138.24 84.48-222.72l-7.68-15.36-107.52 38.4c-5.12 2.56-10.24 2.56-15.36 0l-145.92-51.2c-38.4 56.32-38.4 130.56-2.56 189.44z m404.48-61.44c0 15.36 12.8 28.16 28.16 28.16s28.16-12.8 28.16-28.16c0-15.36-12.8-28.16-28.16-28.16-15.36 2.56-25.6 12.8-28.16 28.16z m-578.56-243.2l330.24 112.64 176.64-56.32-179.2-30.72c-15.36-2.56-28.16-15.36-25.6-30.72v-2.56c2.56-15.36 15.36-25.6 28.16-23.04h7.68l271.36 51.2 53.76-20.48-332.8-115.2-330.24 115.2z" p-id="2463"></path></svg>