<?xml version="1.0" standalone="no"?><!DOCTYPE svg PUBLIC "-//W3C//DTD SVG 1.1//EN" "http://www.w3.org/Graphics/SVG/1.1/DTD/svg11.dtd"><svg t="1734855357524" class="icon" viewBox="0 0 1024 1024" version="1.1" xmlns="http://www.w3.org/2000/svg" p-id="3994" width="128" height="128" xmlns:xlink="http://www.w3.org/1999/xlink"><path d="M262.4 524.8c19.2 0 32-12.8 32-32s-12.8-32-32-32c-32 0-57.6-38.4-57.6-83.2s25.6-83.2 57.6-83.2c19.2 0 32-12.8 32-32s-12.8-44.8-32-44.8c-38.4 0-70.4 19.2-96 44.8-25.6 25.6-32 64-32 102.4s12.8 83.2 32 108.8c-19.2 19.2-38.4 32-57.6 57.6-38.4 44.8-57.6 108.8-57.6 179.2 0 19.2 12.8 32 32 32s32-12.8 32-32c0-51.2 12.8-96 44.8-134.4 32-32 64-51.2 102.4-51.2z m652.8 6.4c-19.2-19.2-38.4-38.4-64-51.2 25.6-25.6 32-64 32-102.4s-12.8-76.8-32-102.4c-25.6-32-57.6-44.8-96-44.8-19.2 0-32 12.8-32 32s12.8 32 32 32c32 0 57.6 38.4 57.6 83.2s-25.6 83.2-57.6 83.2c-19.2 0-32 12.8-32 32s12.8 32 32 32c38.4 0 70.4 19.2 96 51.2 25.6 38.4 44.8 83.2 44.8 134.4 0 19.2 12.8 32 32 32s32-12.8 32-32c12.8-70.4-6.4-134.4-44.8-179.2z m-166.4 12.8c-32-32-64-57.6-108.8-70.4 38.4-32 64-83.2 64-140.8 0-102.4-83.2-192-192-192-102.4 0-192 83.2-192 192 0 57.6 25.6 108.8 64 140.8-25.6 12.8-64 38.4-96 70.4C224 601.6 192 684.8 192 768v83.2c0 19.2 12.8 32 32 32h582.4c19.2 0 32-12.8 32-32V768c6.4-83.2-32-166.4-89.6-224zM518.4 211.2c64 0 121.6 51.2 121.6 121.6S582.4 448 518.4 448s-121.6-57.6-121.6-121.6 57.6-115.2 121.6-115.2z m256 601.6h-512V768c0-140.8 115.2-256 256-256s256 115.2 256 256v44.8z" fill-opacity=".5" p-id="3995"></path></svg>